<svg xmlns="http://www.w3.org/2000/svg" width="45.001" height="45.001" viewBox="0.771 0.538 45.001 45.001" enable-background="new 0.771 0.538 45.001 45.001"><path fill="#4D75A3" d="M7.706.538h31.131c3.83 0 6.935 3.104 6.935 6.935v31.131c0 3.83-3.104 6.936-6.935 6.936h-31.131c-3.83 0-6.935-3.105-6.935-6.936v-31.132c0-3.83 3.104-6.934 6.935-6.934z"/><path fill="#fff" d="M22.894 32.04h1.84s.557-.062.842-.367c.26-.281.252-.81.252-.81s-.037-2.469 1.11-2.833c1.13-.359 2.582 2.387 4.12 3.442 1.163.799 2.046.625 2.046.625l4.112-.058s2.152-.133 1.132-1.824c-.084-.139-.595-1.252-3.06-3.539-2.578-2.393-2.232-2.006.875-6.146 1.892-2.521 2.647-4.062 2.41-4.72-.225-.628-1.615-.462-1.615-.462l-4.631.029s-.344-.047-.599.105c-.248.149-.408.497-.408.497s-.733 1.951-1.71 3.611c-2.062 3.501-2.886 3.686-3.224 3.469-.784-.507-.589-2.036-.589-3.122 0-3.394.516-4.808-1.002-5.174-.502-.122-.873-.202-2.162-.215-1.652-.017-3.05.005-3.842.393-.526.258-.933.833-.686.866.307.041 1 .188 1.367.688.475.645.458 2.095.458 2.095s.272 3.994-.637 4.49c-.624.34-1.48-.354-3.318-3.531-.942-1.626-1.653-3.426-1.653-3.426s-.137-.335-.382-.516c-.297-.218-.711-.287-.711-.287l-4.4.028s-.661.018-.904.305c-.215.256-.017.784-.017.784s3.445 8.06 7.346 12.122c3.579 3.725 7.64 3.481 7.64 3.481z"/></svg>